<svg width="12" height="12" viewBox="0 0 12 12" fill="none" xmlns="http://www.w3.org/2000/svg">
<path d="M-2.48609e-07 5.6875C-1.11312e-07 8.82848 2.54652 11.375 5.6875 11.375C8.82848 11.375 11.375 8.82848 11.375 5.6875C11.375 2.54652 8.82848 -3.85905e-07 5.6875 -2.48609e-07C2.54652 -1.11312e-07 -3.85905e-07 2.54652 -2.48609e-07 5.6875ZM8.00324 4.72199C8.04346 4.67966 8.09175 4.6458 8.14527 4.62242C8.19878 4.59904 8.25643 4.58661 8.31482 4.58587C8.37321 4.58512 8.43116 4.59607 8.48525 4.61807C8.53935 4.64007 8.58849 4.67268 8.62978 4.71397C8.67107 4.75526 8.70368 4.8044 8.72568 4.8585C8.74768 4.91259 8.75863 4.97054 8.75788 5.02893C8.75714 5.08732 8.74471 5.14497 8.72133 5.19848C8.69795 5.252 8.66409 5.30029 8.62176 5.34051L5.99676 7.96551C5.91472 8.04749 5.80348 8.09355 5.6875 8.09355C5.57152 8.09355 5.46028 8.04749 5.37824 7.96551L2.75324 5.34051C2.67466 5.25779 2.6315 5.14765 2.63296 5.03357C2.63442 4.91949 2.68039 4.81049 2.76106 4.72981C2.84174 4.64914 2.95074 4.60317 3.06482 4.60171C3.1789 4.60025 3.28904 4.64341 3.37176 4.72199L5.6875 7.03746L8.00324 4.72199Z" fill="#FF8682"/>
</svg>
