<svg width="24" height="24" viewBox="0 0 24 24" fill="none" xmlns="http://www.w3.org/2000/svg">
<path d="M8.25 19.5V22.5M3.75 1.5H12.75C13.1478 1.5 13.5294 1.65804 13.8107 1.93934C14.092 2.22064 14.25 2.60218 14.25 3V22.3125C14.25 22.3622 14.2302 22.4099 14.1951 22.4451C14.1599 22.4802 14.1122 22.5 14.0625 22.5H2.25V3C2.25 2.60218 2.40804 2.22064 2.68934 1.93934C2.97064 1.65804 3.35218 1.5 3.75 1.5V1.5ZM15 9H20.25C20.6478 9 21.0294 9.15804 21.3107 9.43934C21.592 9.72064 21.75 10.1022 21.75 10.5V22.5H14.25V9.75C14.25 9.55109 14.329 9.36032 14.4697 9.21967C14.6103 9.07902 14.8011 9 15 9Z" stroke="black" stroke-width="1.5" stroke-linecap="round" stroke-linejoin="round"/>
<path d="M4.59726 20.2439C4.44193 20.2642 4.28414 20.2354 4.14603 20.1615C4.00792 20.0875 3.89643 19.9722 3.8272 19.8317C3.75798 19.6911 3.73449 19.5325 3.76004 19.3779C3.7856 19.2234 3.8589 19.0807 3.96967 18.9699C4.08044 18.8591 4.22312 18.7858 4.37767 18.7603C4.53223 18.7347 4.6909 18.7582 4.83143 18.8274C4.97196 18.8967 5.08728 19.0082 5.16122 19.1463C5.23515 19.2844 5.26398 19.4422 5.24367 19.5975C5.22223 19.7614 5.14723 19.9137 5.03033 20.0306C4.91343 20.1475 4.76119 20.2225 4.59726 20.2439ZM4.59726 16.4939C4.44193 16.5142 4.28414 16.4854 4.14603 16.4115C4.00792 16.3375 3.89643 16.2222 3.8272 16.0817C3.75798 15.9411 3.73449 15.7825 3.76004 15.6279C3.7856 15.4734 3.8589 15.3307 3.96967 15.2199C4.08044 15.1091 4.22312 15.0358 4.37767 15.0103C4.53223 14.9847 4.6909 15.0082 4.83143 15.0774C4.97196 15.1467 5.08728 15.2582 5.16122 15.3963C5.23515 15.5344 5.26398 15.6922 5.24367 15.8475C5.22223 16.0114 5.14723 16.1637 5.03033 16.2806C4.91343 16.3975 4.76119 16.4725 4.59726 16.4939ZM4.59726 12.7439C4.44193 12.7642 4.28414 12.7354 4.14603 12.6615C4.00792 12.5875 3.89643 12.4722 3.8272 12.3317C3.75798 12.1911 3.73449 12.0325 3.76004 11.8779C3.7856 11.7234 3.8589 11.5807 3.96967 11.4699C4.08044 11.3591 4.22312 11.2858 4.37767 11.2603C4.53223 11.2347 4.6909 11.2582 4.83143 11.3274C4.97196 11.3967 5.08728 11.5082 5.16122 11.6463C5.23515 11.7844 5.26398 11.9422 5.24367 12.0975C5.22223 12.2614 5.14723 12.4137 5.03033 12.5306C4.91343 12.6475 4.76119 12.7225 4.59726 12.7439ZM4.59726 8.99391C4.44193 9.01423 4.28414 8.98539 4.14603 8.91146C4.00792 8.83753 3.89643 8.7222 3.8272 8.58167C3.75798 8.44115 3.73449 8.28247 3.76004 8.12792C3.7856 7.97336 3.8589 7.83069 3.96967 7.71992C4.08044 7.60914 4.22312 7.53584 4.37767 7.51029C4.53223 7.48474 4.6909 7.50822 4.83143 7.57745C4.97196 7.64668 5.08728 7.75817 5.16122 7.89627C5.23515 8.03438 5.26398 8.19218 5.24367 8.34751C5.22223 8.51143 5.14723 8.66368 5.03033 8.78058C4.91343 8.89747 4.76119 8.97247 4.59726 8.99391ZM4.59726 5.24391C4.44193 5.26423 4.28414 5.23539 4.14603 5.16146C4.00792 5.08753 3.89643 4.9722 3.8272 4.83167C3.75798 4.69115 3.73449 4.53247 3.76004 4.37792C3.7856 4.22336 3.8589 4.08069 3.96967 3.96991C4.08044 3.85914 4.22312 3.78584 4.37767 3.76029C4.53223 3.73474 4.6909 3.75822 4.83143 3.82745C4.97196 3.89668 5.08728 4.00817 5.16122 4.14627C5.23515 4.28438 5.26398 4.44218 5.24367 4.59751C5.22223 4.76143 5.14723 4.91368 5.03033 5.03058C4.91343 5.14747 4.76119 5.22247 4.59726 5.24391ZM8.34726 16.4939C8.19193 16.5142 8.03414 16.4854 7.89603 16.4115C7.75792 16.3375 7.64643 16.2222 7.57721 16.0817C7.50798 15.9411 7.48449 15.7825 7.51005 15.6279C7.5356 15.4734 7.6089 15.3307 7.71967 15.2199C7.83044 15.1091 7.97312 15.0358 8.12767 15.0103C8.28223 14.9847 8.4409 15.0082 8.58143 15.0774C8.72196 15.1467 8.83728 15.2582 8.91122 15.3963C8.98515 15.5344 9.01398 15.6922 8.99367 15.8475C8.97223 16.0114 8.89723 16.1637 8.78033 16.2806C8.66343 16.3975 8.51119 16.4725 8.34726 16.4939ZM8.34726 12.7439C8.19193 12.7642 8.03414 12.7354 7.89603 12.6615C7.75792 12.5875 7.64643 12.4722 7.57721 12.3317C7.50798 12.1911 7.48449 12.0325 7.51005 11.8779C7.5356 11.7234 7.6089 11.5807 7.71967 11.4699C7.83044 11.3591 7.97312 11.2858 8.12767 11.2603C8.28223 11.2347 8.4409 11.2582 8.58143 11.3274C8.72196 11.3967 8.83728 11.5082 8.91122 11.6463C8.98515 11.7844 9.01398 11.9422 8.99367 12.0975C8.97223 12.2614 8.89723 12.4137 8.78033 12.5306C8.66343 12.6475 8.51119 12.7225 8.34726 12.7439ZM8.34726 8.99391C8.19193 9.01423 8.03414 8.98539 7.89603 8.91146C7.75792 8.83753 7.64643 8.7222 7.57721 8.58167C7.50798 8.44115 7.48449 8.28247 7.51005 8.12792C7.5356 7.97336 7.6089 7.83069 7.71967 7.71992C7.83044 7.60914 7.97312 7.53584 8.12767 7.51029C8.28223 7.48474 8.4409 7.50822 8.58143 7.57745C8.72196 7.64668 8.83728 7.75817 8.91122 7.89627C8.98515 8.03438 9.01398 8.19218 8.99367 8.34751C8.97223 8.51143 8.89723 8.66368 8.78033 8.78058C8.66343 8.89747 8.51119 8.97247 8.34726 8.99391ZM8.34726 5.24391C8.19193 5.26423 8.03414 5.23539 7.89603 5.16146C7.75792 5.08753 7.64643 4.9722 7.57721 4.83167C7.50798 4.69115 7.48449 4.53247 7.51005 4.37792C7.5356 4.22336 7.6089 4.08069 7.71967 3.96991C7.83044 3.85914 7.97312 3.78584 8.12767 3.76029C8.28223 3.73474 8.4409 3.75822 8.58143 3.82745C8.72196 3.89668 8.83728 4.00817 8.91122 4.14627C8.98515 4.28438 9.01398 4.44218 8.99367 4.59751C8.97223 4.76143 8.89723 4.91368 8.78033 5.03058C8.66343 5.14747 8.51119 5.22247 8.34726 5.24391ZM12.0973 20.2439C11.9419 20.2642 11.7841 20.2354 11.646 20.1615C11.5079 20.0875 11.3964 19.9722 11.3272 19.8317C11.258 19.6911 11.2345 19.5325 11.26 19.3779C11.2856 19.2234 11.3589 19.0807 11.4697 18.9699C11.5804 18.8591 11.7231 18.7858 11.8777 18.7603C12.0322 18.7347 12.1909 18.7582 12.3314 18.8274C12.472 18.8967 12.5873 19.0082 12.6612 19.1463C12.7352 19.2844 12.764 19.4422 12.7437 19.5975C12.7222 19.7614 12.6472 19.9137 12.5303 20.0306C12.4134 20.1475 12.2612 20.2225 12.0973 20.2439ZM12.0973 16.4939C11.9419 16.5142 11.7841 16.4854 11.646 16.4115C11.5079 16.3375 11.3964 16.2222 11.3272 16.0817C11.258 15.9411 11.2345 15.7825 11.26 15.6279C11.2856 15.4734 11.3589 15.3307 11.4697 15.2199C11.5804 15.1091 11.7231 15.0358 11.8777 15.0103C12.0322 14.9847 12.1909 15.0082 12.3314 15.0774C12.472 15.1467 12.5873 15.2582 12.6612 15.3963C12.7352 15.5344 12.764 15.6922 12.7437 15.8475C12.7222 16.0114 12.6472 16.1637 12.5303 16.2806C12.4134 16.3975 12.2612 16.4725 12.0973 16.4939ZM12.0973 12.7439C11.9419 12.7642 11.7841 12.7354 11.646 12.6615C11.5079 12.5875 11.3964 12.4722 11.3272 12.3317C11.258 12.1911 11.2345 12.0325 11.26 11.8779C11.2856 11.7234 11.3589 11.5807 11.4697 11.4699C11.5804 11.3591 11.7231 11.2858 11.8777 11.2603C12.0322 11.2347 12.1909 11.2582 12.3314 11.3274C12.472 11.3967 12.5873 11.5082 12.6612 11.6463C12.7352 11.7844 12.764 11.9422 12.7437 12.0975C12.7222 12.2614 12.6472 12.4137 12.5303 12.5306C12.4134 12.6475 12.2612 12.7225 12.0973 12.7439Z" fill="black"/>
<path d="M12.5318 8.78105C12.8237 8.48907 12.8225 8.01449 12.5291 7.72105C12.2357 7.42761 11.7611 7.42642 11.4691 7.7184C11.1771 8.01038 11.1783 8.48495 11.4718 8.77839C11.7652 9.07184 12.2398 9.07302 12.5318 8.78105Z" fill="black"/>
<path d="M12.0973 5.24391C11.9419 5.26423 11.7841 5.23539 11.646 5.16146C11.5079 5.08753 11.3964 4.9722 11.3272 4.83167C11.258 4.69115 11.2345 4.53247 11.26 4.37792C11.2856 4.22336 11.3589 4.08069 11.4697 3.96991C11.5804 3.85914 11.7231 3.78584 11.8777 3.76029C12.0322 3.73474 12.1909 3.75822 12.3314 3.82745C12.472 3.89668 12.5873 4.00817 12.6612 4.14627C12.7351 4.28438 12.764 4.44218 12.7437 4.59751C12.7222 4.76143 12.6472 4.91368 12.5303 5.03058C12.4134 5.14747 12.2612 5.22247 12.0973 5.24391ZM18.7498 18.75C18.6014 18.75 18.4564 18.794 18.3331 18.8764C18.2097 18.9588 18.1136 19.0759 18.0569 19.213C18.0001 19.35 17.9852 19.5008 18.0142 19.6463C18.0431 19.7918 18.1145 19.9254 18.2194 20.0303C18.3243 20.1352 18.458 20.2067 18.6034 20.2356C18.7489 20.2645 18.8997 20.2497 19.0368 20.1929C19.1738 20.1361 19.291 20.04 19.3734 19.9167C19.4558 19.7933 19.4998 19.6483 19.4998 19.5C19.4998 19.3011 19.4207 19.1103 19.2801 18.9697C19.1394 18.829 18.9487 18.75 18.7498 18.75ZM18.7498 15C18.6014 15 18.4564 15.044 18.3331 15.1264C18.2097 15.2088 18.1136 15.3259 18.0569 15.463C18.0001 15.6 17.9852 15.7508 18.0142 15.8963C18.0431 16.0418 18.1145 16.1754 18.2194 16.2803C18.3243 16.3852 18.458 16.4567 18.6034 16.4856C18.7489 16.5145 18.8997 16.4997 19.0368 16.4429C19.1738 16.3861 19.291 16.29 19.3734 16.1667C19.4558 16.0433 19.4998 15.8983 19.4998 15.75C19.4998 15.5511 19.4207 15.3603 19.2801 15.2197C19.1394 15.079 18.9487 15 18.7498 15ZM18.7498 11.25C18.6014 11.25 18.4564 11.294 18.3331 11.3764C18.2097 11.4588 18.1136 11.5759 18.0569 11.713C18.0001 11.85 17.9852 12.0008 18.0142 12.1463C18.0431 12.2918 18.1145 12.4254 18.2194 12.5303C18.3243 12.6352 18.458 12.7067 18.6034 12.7356C18.7489 12.7645 18.8997 12.7497 19.0368 12.6929C19.1738 12.6361 19.291 12.54 19.3734 12.4167C19.4558 12.2933 19.4998 12.1483 19.4998 12C19.4998 11.8011 19.4207 11.6103 19.2801 11.4697C19.1394 11.329 18.9487 11.25 18.7498 11.25ZM15.7498 18.75C15.6014 18.75 15.4564 18.794 15.3331 18.8764C15.2097 18.9588 15.1136 19.0759 15.0569 19.213C15.0001 19.35 14.9852 19.5008 15.0142 19.6463C15.0431 19.7918 15.1145 19.9254 15.2194 20.0303C15.3243 20.1352 15.458 20.2067 15.6034 20.2356C15.7489 20.2645 15.8997 20.2497 16.0368 20.1929C16.1738 20.1361 16.291 20.04 16.3734 19.9167C16.4558 19.7933 16.4998 19.6483 16.4998 19.5C16.4998 19.3011 16.4207 19.1103 16.2801 18.9697C16.1394 18.829 15.9487 18.75 15.7498 18.75ZM15.7498 15C15.6014 15 15.4564 15.044 15.3331 15.1264C15.2097 15.2088 15.1136 15.3259 15.0569 15.463C15.0001 15.6 14.9852 15.7508 15.0142 15.8963C15.0431 16.0418 15.1145 16.1754 15.2194 16.2803C15.3243 16.3852 15.458 16.4567 15.6034 16.4856C15.7489 16.5145 15.8997 16.4997 16.0368 16.4429C16.1738 16.3861 16.291 16.29 16.3734 16.1667C16.4558 16.0433 16.4998 15.8983 16.4998 15.75C16.4998 15.5511 16.4207 15.3603 16.2801 15.2197C16.1394 15.079 15.9487 15 15.7498 15ZM15.7498 11.25C15.6014 11.25 15.4564 11.294 15.3331 11.3764C15.2097 11.4588 15.1136 11.5759 15.0569 11.713C15.0001 11.85 14.9852 12.0008 15.0142 12.1463C15.0431 12.2918 15.1145 12.4254 15.2194 12.5303C15.3243 12.6352 15.458 12.7067 15.6034 12.7356C15.7489 12.7645 15.8997 12.7497 16.0368 12.6929C16.1738 12.6361 16.291 12.54 16.3734 12.4167C16.4558 12.2933 16.4998 12.1483 16.4998 12C16.4998 11.8011 16.4207 11.6103 16.2801 11.4697C16.1394 11.329 15.9487 11.25 15.7498 11.25Z" fill="black"/>
</svg>
