<svg width="24" height="24" viewBox="0 0 24 24" fill="none" xmlns="http://www.w3.org/2000/svg">
<path d="M20.25 8.25H15V3C15 2.40326 14.7629 1.83097 14.341 1.40901C13.919 0.987053 13.3467 0.75 12.75 0.75H3.75C3.15326 0.75 2.58097 0.987053 2.15901 1.40901C1.73705 1.83097 1.5 2.40326 1.5 3V22.5C1.5 22.6989 1.57902 22.8897 1.71967 23.0303C1.86032 23.171 2.05109 23.25 2.25 23.25H7.125C7.22446 23.25 7.31984 23.2105 7.39017 23.1402C7.46049 23.0698 7.5 22.9745 7.5 22.875V19.5211C7.5 19.1175 7.81031 18.7711 8.21391 18.7509C8.31531 18.7461 8.41666 18.7618 8.5118 18.7972C8.60693 18.8327 8.69389 18.8871 8.76739 18.9571C8.84089 19.0271 8.8994 19.1114 8.93938 19.2047C8.97937 19.298 8.99999 19.3985 9 19.5V22.875C9 22.9745 9.03951 23.0698 9.10983 23.1402C9.18016 23.2105 9.27554 23.25 9.375 23.25H21.75C21.9489 23.25 22.1397 23.171 22.2803 23.0303C22.421 22.8897 22.5 22.6989 22.5 22.5V10.5C22.5 9.90326 22.2629 9.33097 21.841 8.90901C21.419 8.48705 20.8467 8.25 20.25 8.25ZM4.5975 20.2439C4.44217 20.2642 4.28438 20.2354 4.14627 20.1615C4.00816 20.0875 3.89667 19.9722 3.82744 19.8317C3.75822 19.6911 3.73473 19.5325 3.76028 19.3779C3.78583 19.2234 3.85914 19.0807 3.96991 18.9699C4.08068 18.8591 4.22336 18.7858 4.37791 18.7603C4.53247 18.7347 4.69114 18.7582 4.83167 18.8274C4.9722 18.8967 5.08752 19.0082 5.16145 19.1463C5.23539 19.2844 5.26422 19.4422 5.24391 19.5975C5.22247 19.7614 5.14747 19.9137 5.03057 20.0306C4.91367 20.1475 4.76142 20.2225 4.5975 20.2439ZM4.5975 16.4939C4.44217 16.5142 4.28438 16.4854 4.14627 16.4115C4.00816 16.3375 3.89667 16.2222 3.82744 16.0817C3.75822 15.9411 3.73473 15.7825 3.76028 15.6279C3.78583 15.4734 3.85914 15.3307 3.96991 15.2199C4.08068 15.1091 4.22336 15.0358 4.37791 15.0103C4.53247 14.9847 4.69114 15.0082 4.83167 15.0774C4.9722 15.1467 5.08752 15.2582 5.16145 15.3963C5.23539 15.5344 5.26422 15.6922 5.24391 15.8475C5.22247 16.0114 5.14747 16.1637 5.03057 16.2806C4.91367 16.3975 4.76142 16.4725 4.5975 16.4939ZM4.5975 12.7439C4.44217 12.7642 4.28438 12.7354 4.14627 12.6615C4.00816 12.5875 3.89667 12.4722 3.82744 12.3317C3.75822 12.1911 3.73473 12.0325 3.76028 11.8779C3.78583 11.7234 3.85914 11.5807 3.96991 11.4699C4.08068 11.3591 4.22336 11.2858 4.37791 11.2603C4.53247 11.2347 4.69114 11.2582 4.83167 11.3274C4.9722 11.3967 5.08752 11.5082 5.16145 11.6463C5.23539 11.7844 5.26422 11.9422 5.24391 12.0975C5.22247 12.2614 5.14747 12.4137 5.03057 12.5306C4.91367 12.6475 4.76142 12.7225 4.5975 12.7439ZM4.5975 8.99391C4.44217 9.01422 4.28438 8.98539 4.14627 8.91145C4.00816 8.83752 3.89667 8.7222 3.82744 8.58167C3.75822 8.44114 3.73473 8.28247 3.76028 8.12791C3.78583 7.97335 3.85914 7.83068 3.96991 7.71991C4.08068 7.60914 4.22336 7.53583 4.37791 7.51028C4.53247 7.48473 4.69114 7.50822 4.83167 7.57744C4.9722 7.64667 5.08752 7.75816 5.16145 7.89627C5.23539 8.03438 5.26422 8.19217 5.24391 8.3475C5.22247 8.51142 5.14747 8.66367 5.03057 8.78057C4.91367 8.89747 4.76142 8.97247 4.5975 8.99391ZM4.5975 5.24391C4.44217 5.26422 4.28438 5.23539 4.14627 5.16145C4.00816 5.08752 3.89667 4.9722 3.82744 4.83167C3.75822 4.69114 3.73473 4.53247 3.76028 4.37791C3.78583 4.22336 3.85914 4.08068 3.96991 3.96991C4.08068 3.85914 4.22336 3.78583 4.37791 3.76028C4.53247 3.73473 4.69114 3.75822 4.83167 3.82744C4.9722 3.89667 5.08752 4.00816 5.16145 4.14627C5.23539 4.28438 5.26422 4.44217 5.24391 4.5975C5.22247 4.76142 5.14747 4.91367 5.03057 5.03057C4.91367 5.14747 4.76142 5.22247 4.5975 5.24391ZM8.3475 16.4939C8.19217 16.5142 8.03438 16.4854 7.89627 16.4115C7.75816 16.3375 7.64667 16.2222 7.57744 16.0817C7.50822 15.9411 7.48473 15.7825 7.51028 15.6279C7.53583 15.4734 7.60914 15.3307 7.71991 15.2199C7.83068 15.1091 7.97335 15.0358 8.12791 15.0103C8.28247 14.9847 8.44114 15.0082 8.58167 15.0774C8.7222 15.1467 8.83752 15.2582 8.91145 15.3963C8.98539 15.5344 9.01422 15.6922 8.99391 15.8475C8.97247 16.0114 8.89747 16.1637 8.78057 16.2806C8.66367 16.3975 8.51142 16.4725 8.3475 16.4939ZM8.3475 12.7439C8.19217 12.7642 8.03438 12.7354 7.89627 12.6615C7.75816 12.5875 7.64667 12.4722 7.57744 12.3317C7.50822 12.1911 7.48473 12.0325 7.51028 11.8779C7.53583 11.7234 7.60914 11.5807 7.71991 11.4699C7.83068 11.3591 7.97335 11.2858 8.12791 11.2603C8.28247 11.2347 8.44114 11.2582 8.58167 11.3274C8.7222 11.3967 8.83752 11.5082 8.91145 11.6463C8.98539 11.7844 9.01422 11.9422 8.99391 12.0975C8.97247 12.2614 8.89747 12.4137 8.78057 12.5306C8.66367 12.6475 8.51142 12.7225 8.3475 12.7439ZM8.3475 8.99391C8.19217 9.01422 8.03438 8.98539 7.89627 8.91145C7.75816 8.83752 7.64667 8.7222 7.57744 8.58167C7.50822 8.44114 7.48473 8.28247 7.51028 8.12791C7.53583 7.97335 7.60914 7.83068 7.71991 7.71991C7.83068 7.60914 7.97335 7.53583 8.12791 7.51028C8.28247 7.48473 8.44114 7.50822 8.58167 7.57744C8.7222 7.64667 8.83752 7.75816 8.91145 7.89627C8.98539 8.03438 9.01422 8.19217 8.99391 8.3475C8.97247 8.51142 8.89747 8.66367 8.78057 8.78057C8.66367 8.89747 8.51142 8.97247 8.3475 8.99391ZM8.3475 5.24391C8.19217 5.26422 8.03438 5.23539 7.89627 5.16145C7.75816 5.08752 7.64667 4.9722 7.57744 4.83167C7.50822 4.69114 7.48473 4.53247 7.51028 4.37791C7.53583 4.22336 7.60914 4.08068 7.71991 3.96991C7.83068 3.85914 7.97335 3.78583 8.12791 3.76028C8.28247 3.73473 8.44114 3.75822 8.58167 3.82744C8.7222 3.89667 8.83752 4.00816 8.91145 4.14627C8.98539 4.28438 9.01422 4.44217 8.99391 4.5975C8.97247 4.76142 8.89747 4.91367 8.78057 5.03057C8.66367 5.14747 8.51142 5.22247 8.3475 5.24391ZM12.0975 20.2439C11.9422 20.2642 11.7844 20.2354 11.6463 20.1615C11.5082 20.0875 11.3967 19.9722 11.3274 19.8317C11.2582 19.6911 11.2347 19.5325 11.2603 19.3779C11.2858 19.2234 11.3591 19.0807 11.4699 18.9699C11.5807 18.8591 11.7234 18.7858 11.8779 18.7603C12.0325 18.7347 12.1911 18.7582 12.3317 18.8274C12.4722 18.8967 12.5875 19.0082 12.6615 19.1463C12.7354 19.2844 12.7642 19.4422 12.7439 19.5975C12.7225 19.7614 12.6475 19.9137 12.5306 20.0306C12.4137 20.1475 12.2614 20.2225 12.0975 20.2439ZM12.0975 16.4939C11.9422 16.5142 11.7844 16.4854 11.6463 16.4115C11.5082 16.3375 11.3967 16.2222 11.3274 16.0817C11.2582 15.9411 11.2347 15.7825 11.2603 15.6279C11.2858 15.4734 11.3591 15.3307 11.4699 15.2199C11.5807 15.1091 11.7234 15.0358 11.8779 15.0103C12.0325 14.9847 12.1911 15.0082 12.3317 15.0774C12.4722 15.1467 12.5875 15.2582 12.6615 15.3963C12.7354 15.5344 12.7642 15.6922 12.7439 15.8475C12.7225 16.0114 12.6475 16.1637 12.5306 16.2806C12.4137 16.3975 12.2614 16.4725 12.0975 16.4939ZM12.0975 12.7439C11.9422 12.7642 11.7844 12.7354 11.6463 12.6615C11.5082 12.5875 11.3967 12.4722 11.3274 12.3317C11.2582 12.1911 11.2347 12.0325 11.2603 11.8779C11.2858 11.7234 11.3591 11.5807 11.4699 11.4699C11.5807 11.3591 11.7234 11.2858 11.8779 11.2603C12.0325 11.2347 12.1911 11.2582 12.3317 11.3274C12.4722 11.3967 12.5875 11.5082 12.6615 11.6463C12.7354 11.7844 12.7642 11.9422 12.7439 12.0975C12.7225 12.2614 12.6475 12.4137 12.5306 12.5306C12.4137 12.6475 12.2614 12.7225 12.0975 12.7439ZM12.0975 8.99391C11.9422 9.01422 11.7844 8.98539 11.6463 8.91145C11.5082 8.83752 11.3967 8.7222 11.3274 8.58167C11.2582 8.44114 11.2347 8.28247 11.2603 8.12791C11.2858 7.97335 11.3591 7.83068 11.4699 7.71991C11.5807 7.60914 11.7234 7.53583 11.8779 7.51028C12.0325 7.48473 12.1911 7.50822 12.3317 7.57744C12.4722 7.64667 12.5875 7.75816 12.6615 7.89627C12.7354 8.03438 12.7642 8.19217 12.7439 8.3475C12.7225 8.51142 12.6475 8.66367 12.5306 8.78057C12.4137 8.89747 12.2614 8.97247 12.0975 8.99391ZM12.0975 5.24391C11.9422 5.26422 11.7844 5.23539 11.6463 5.16145C11.5082 5.08752 11.3967 4.9722 11.3274 4.83167C11.2582 4.69114 11.2347 4.53247 11.2603 4.37791C11.2858 4.22336 11.3591 4.08068 11.4699 3.96991C11.5807 3.85914 11.7234 3.78583 11.8779 3.76028C12.0325 3.73473 12.1911 3.75822 12.3317 3.82744C12.4722 3.89667 12.5875 4.00816 12.6615 4.14627C12.7354 4.28438 12.7642 4.44217 12.7439 4.5975C12.7225 4.76142 12.6475 4.91367 12.5306 5.03057C12.4137 5.14747 12.2614 5.22247 12.0975 5.24391ZM20.8125 21.75H15V9.75H20.25C20.4489 9.75 20.6397 9.82902 20.7803 9.96967C20.921 10.1103 21 10.3011 21 10.5V21.5625C21 21.6122 20.9802 21.6599 20.9451 21.6951C20.9099 21.7302 20.8622 21.75 20.8125 21.75Z" fill="black"/>
<path d="M18.75 18.75C18.6017 18.75 18.4567 18.794 18.3333 18.8764C18.21 18.9588 18.1139 19.0759 18.0571 19.213C18.0003 19.35 17.9855 19.5008 18.0144 19.6463C18.0434 19.7918 18.1148 19.9254 18.2197 20.0303C18.3246 20.1352 18.4582 20.2066 18.6037 20.2356C18.7492 20.2645 18.9 20.2497 19.037 20.1929C19.1741 20.1361 19.2912 20.04 19.3736 19.9167C19.456 19.7933 19.5 19.6483 19.5 19.5C19.5 19.3011 19.421 19.1103 19.2803 18.9697C19.1397 18.829 18.9489 18.75 18.75 18.75ZM18.75 15C18.6017 15 18.4567 15.044 18.3333 15.1264C18.21 15.2088 18.1139 15.3259 18.0571 15.463C18.0003 15.6 17.9855 15.7508 18.0144 15.8963C18.0434 16.0418 18.1148 16.1754 18.2197 16.2803C18.3246 16.3852 18.4582 16.4567 18.6037 16.4856C18.7492 16.5145 18.9 16.4997 19.037 16.4429C19.1741 16.3861 19.2912 16.29 19.3736 16.1667C19.456 16.0433 19.5 15.8983 19.5 15.75C19.5 15.5511 19.421 15.3603 19.2803 15.2197C19.1397 15.079 18.9489 15 18.75 15ZM18.75 11.25C18.6017 11.25 18.4567 11.294 18.3333 11.3764C18.21 11.4588 18.1139 11.5759 18.0571 11.713C18.0003 11.85 17.9855 12.0008 18.0144 12.1463C18.0434 12.2918 18.1148 12.4254 18.2197 12.5303C18.3246 12.6352 18.4582 12.7067 18.6037 12.7356C18.7492 12.7645 18.9 12.7497 19.037 12.6929C19.1741 12.6361 19.2912 12.54 19.3736 12.4167C19.456 12.2933 19.5 12.1483 19.5 12C19.5 11.8011 19.421 11.6103 19.2803 11.4697C19.1397 11.329 18.9489 11.25 18.75 11.25ZM15.75 18.75C15.6017 18.75 15.4567 18.794 15.3333 18.8764C15.21 18.9588 15.1139 19.0759 15.0571 19.213C15.0003 19.35 14.9855 19.5008 15.0144 19.6463C15.0434 19.7918 15.1148 19.9254 15.2197 20.0303C15.3246 20.1352 15.4582 20.2066 15.6037 20.2356C15.7492 20.2645 15.9 20.2497 16.037 20.1929C16.1741 20.1361 16.2912 20.04 16.3736 19.9167C16.456 19.7933 16.5 19.6483 16.5 19.5C16.5 19.3011 16.421 19.1103 16.2803 18.9697C16.1397 18.829 15.9489 18.75 15.75 18.75ZM15.75 15C15.6017 15 15.4567 15.044 15.3333 15.1264C15.21 15.2088 15.1139 15.3259 15.0571 15.463C15.0003 15.6 14.9855 15.7508 15.0144 15.8963C15.0434 16.0418 15.1148 16.1754 15.2197 16.2803C15.3246 16.3852 15.4582 16.4567 15.6037 16.4856C15.7492 16.5145 15.9 16.4997 16.037 16.4429C16.1741 16.3861 16.2912 16.29 16.3736 16.1667C16.456 16.0433 16.5 15.8983 16.5 15.75C16.5 15.5511 16.421 15.3603 16.2803 15.2197C16.1397 15.079 15.9489 15 15.75 15ZM15.75 11.25C15.6017 11.25 15.4567 11.294 15.3333 11.3764C15.21 11.4588 15.1139 11.5759 15.0571 11.713C15.0003 11.85 14.9855 12.0008 15.0144 12.1463C15.0434 12.2918 15.1148 12.4254 15.2197 12.5303C15.3246 12.6352 15.4582 12.7067 15.6037 12.7356C15.7492 12.7645 15.9 12.7497 16.037 12.6929C16.1741 12.6361 16.2912 12.54 16.3736 12.4167C16.456 12.2933 16.5 12.1483 16.5 12C16.5 11.8011 16.421 11.6103 16.2803 11.4697C16.1397 11.329 15.9489 11.25 15.75 11.25Z" fill="black"/>
</svg>
