<svg width="20" height="20" viewBox="0 0 20 20" fill="none" xmlns="http://www.w3.org/2000/svg">
<path d="M9.49787 7.51824C7.93707 7.51824 6.66333 8.79198 6.66333 10.3528C6.66333 11.9136 7.93707 13.1873 9.49787 13.1873C11.0587 13.1873 12.3324 11.9136 12.3324 10.3528C12.3324 8.79198 11.0587 7.51824 9.49787 7.51824ZM17.9994 10.3528C17.9994 9.17899 18.01 8.01583 17.9441 6.84416C17.8782 5.48324 17.5677 4.27543 16.5725 3.28025C15.5752 2.28296 14.3695 1.97462 13.0086 1.9087C11.8348 1.84278 10.6717 1.85342 9.5 1.85342C8.32621 1.85342 7.16305 1.84278 5.99138 1.9087C4.63046 1.97462 3.42264 2.28508 2.42747 3.28025C1.43017 4.27755 1.12184 5.48324 1.05592 6.84416C0.99 8.01796 1.00063 9.18112 1.00063 10.3528C1.00063 11.5244 0.99 12.6897 1.05592 13.8614C1.12184 15.2223 1.4323 16.4301 2.42747 17.4253C3.42477 18.4226 4.63046 18.7309 5.99138 18.7969C7.16517 18.8628 8.32833 18.8521 9.5 18.8521C10.6738 18.8521 11.837 18.8628 13.0086 18.7969C14.3695 18.7309 15.5774 18.4205 16.5725 17.4253C17.5698 16.428 17.8782 15.2223 17.9441 13.8614C18.0121 12.6897 17.9994 11.5266 17.9994 10.3528ZM9.49787 14.7141C7.08437 14.7141 5.13655 12.7663 5.13655 10.3528C5.13655 7.93928 7.08437 5.99146 9.49787 5.99146C11.9114 5.99146 13.8592 7.93928 13.8592 10.3528C13.8592 12.7663 11.9114 14.7141 9.49787 14.7141ZM14.0378 6.8314C13.4743 6.8314 13.0193 6.37635 13.0193 5.81284C13.0193 5.24933 13.4743 4.79428 14.0378 4.79428C14.6013 4.79428 15.0564 5.24933 15.0564 5.81284C15.0565 5.94665 15.0303 6.07917 14.9792 6.20283C14.9281 6.32648 14.853 6.43883 14.7584 6.53345C14.6638 6.62806 14.5515 6.70308 14.4278 6.75421C14.3041 6.80534 14.1716 6.83157 14.0378 6.8314Z" fill="#112211"/>
</svg>
